<?xml version="1.0" encoding="UTF-8"?>
<svg width="1400" height="1800" xmlns="http://www.w3.org/2000/svg">
    <style>
        .title { font-size: 48px; font-family: Arial; fill: rgb(198, 208, 245); }
        .header { font-size: 32px; font-family: Arial; fill: rgb(165, 173, 206); }
        .text { font-size: 24px; font-family: Arial; fill: rgb(198, 208, 245); }
    </style>
    <rect width="100%" height="100%" fill="rgb(61, 55, 91)"/>
    
    <g transform="translate(0, 1550) scale(0.65)" opacity="0.78">
        <path d="M1670.5 384L2119.5 392.5L2084 382L2017 368.5L2006.5 358.5L1973.5 343.5L1975.5 279H1977.5L1973.5 260L1971.5 268.5L1965.5 255.5V250.5H1967.5L1963 241.5H1960.5V221H1963L1958 186L1952 221H1954V236.5L1913 222.5V199.5L1909.5 185L1901 119V112.5H1903.5V110.5H1901V106.5H1899V110.5H1897V112.5H1899V119L1896 185L1891.5 199.5V215.5L1836 196V175H1838L1832 146.5L1825 175H1826.5V214.5L1818 212V210H1820L1814.5 175L1816.5 171.5L1793.5 98.5L1793 85.5L1797.5 82V76L1802 73.5V53.5H1803.5L1800.5 43L1797.5 53.5L1795.5 48L1793 57L1791 53L1786.5 65.5L1788 67V79.5L1771 25L1769 0L1768 25L1718 171.5L1720 175V193.5L1723 196V198.5L1724.5 199.5V276L1723 277V282.5L1704.5 289.5L1705 263.5H1707.5L1690.5 189.5L1689.5 171.5V189.5L1670.5 263.5H1674.5L1670.5 384Z" fill="#0d0d11"/>
        <path d="M199 383.86L117.5 391.279L0 396H2159L2070 385.209L2030.5 382.287L1956 378.915L1912 371.271L1870 368.798L1814.5 367C1786 369.698 1690.5 356 1684.5 356C1680.9 356 1661.33 369.698 1632 367L1555 368.798L1491 360L1459 363.5L1453.5 367L1430.5 371.271H1411.5L1312 375.093H1165.5L1059.5 371.271L952.5 367L878 371.271C850.833 372.545 794.6 375.093 787 375.093C779.4 375.093 693.833 369.698 652 367H591L513 375.093H310L275 380.488L199 383.86Z" fill="#0d0d11"/>
    </g>
    
    <text x="120" y="80" class="title">DRACULA Theme🦇Color Palette</text>
    <text x="120" y="160" class="header">Color</text>
    <text x="420" y="160" class="header">Hex</text>
    <text x="720" y="160" class="header">RGB</text>
    <text x="1020" y="160" class="header">HSL</text>
    <circle cx="100" cy="210" r="15" fill="#303446"/>
    <text x="140" y="220" class="text">Background</text>
    <text x="420" y="220" class="text">#303446</text>
    <text x="720" y="220" class="text">rgb(48, 52, 70)</text>
    <text x="1020" y="220" class="text">hsl(229deg, 19%, 23%)</text>
    <circle cx="100" cy="270" r="15" fill="#c6d0f5"/>
    <text x="140" y="280" class="text">Foreground</text>
    <text x="420" y="280" class="text">#c6d0f5</text>
    <text x="720" y="280" class="text">rgb(198, 208, 245)</text>
    <text x="1020" y="280" class="text">hsl(227deg, 70%, 87%)</text>
    <circle cx="100" cy="330" r="15" fill="#414559"/>
    <text x="140" y="340" class="text">Black</text>
    <text x="420" y="340" class="text">#414559</text>
    <text x="720" y="340" class="text">rgb(65, 69, 89)</text>
    <text x="1020" y="340" class="text">hsl(230deg, 16%, 30%)</text>
    <circle cx="100" cy="390" r="15" fill="#e78284"/>
    <text x="140" y="400" class="text">Red</text>
    <text x="420" y="400" class="text">#e78284</text>
    <text x="720" y="400" class="text">rgb(231, 130, 132)</text>
    <text x="1020" y="400" class="text">hsl(359deg, 68%, 71%)</text>
    <circle cx="100" cy="450" r="15" fill="#a6d189"/>
    <text x="140" y="460" class="text">Green</text>
    <text x="420" y="460" class="text">#a6d189</text>
    <text x="720" y="460" class="text">rgb(166, 209, 137)</text>
    <text x="1020" y="460" class="text">hsl(96deg, 44%, 68%)</text>
    <circle cx="100" cy="510" r="15" fill="#e5c890"/>
    <text x="140" y="520" class="text">Yellow</text>
    <text x="420" y="520" class="text">#e5c890</text>
    <text x="720" y="520" class="text">rgb(229, 200, 144)</text>
    <text x="1020" y="520" class="text">hsl(40deg, 62%, 73%)</text>
    <circle cx="100" cy="570" r="15" fill="#8caaee"/>
    <text x="140" y="580" class="text">Blue</text>
    <text x="420" y="580" class="text">#8caaee</text>
    <text x="720" y="580" class="text">rgb(140, 170, 238)</text>
    <text x="1020" y="580" class="text">hsl(222deg, 74%, 74%)</text>
    <circle cx="100" cy="630" r="15" fill="#ca9ee6"/>
    <text x="140" y="640" class="text">Magenta</text>
    <text x="420" y="640" class="text">#ca9ee6</text>
    <text x="720" y="640" class="text">rgb(202, 158, 230)</text>
    <text x="1020" y="640" class="text">hsl(277deg, 59%, 76%)</text>
    <circle cx="100" cy="690" r="15" fill="#81c8be"/>
    <text x="140" y="700" class="text">Cyan</text>
    <text x="420" y="700" class="text">#81c8be</text>
    <text x="720" y="700" class="text">rgb(129, 200, 190)</text>
    <text x="1020" y="700" class="text">hsl(172deg, 39%, 65%)</text>
    <circle cx="100" cy="750" r="15" fill="#b5bfe2"/>
    <text x="140" y="760" class="text">White</text>
    <text x="420" y="760" class="text">#b5bfe2</text>
    <text x="720" y="760" class="text">rgb(181, 191, 226)</text>
    <text x="1020" y="760" class="text">hsl(227deg, 44%, 80%)</text>
    <circle cx="100" cy="810" r="15" fill="#737994"/>
    <text x="140" y="820" class="text">Bright Black</text>
    <text x="420" y="820" class="text">#737994</text>
    <text x="720" y="820" class="text">rgb(115, 121, 148)</text>
    <text x="1020" y="820" class="text">hsl(229deg, 13%, 52%)</text>
    <circle cx="100" cy="870" r="15" fill="#ea999c"/>
    <text x="140" y="880" class="text">Bright Red</text>
    <text x="420" y="880" class="text">#ea999c</text>
    <text x="720" y="880" class="text">rgb(234, 153, 156)</text>
    <text x="1020" y="880" class="text">hsl(358deg, 66%, 76%)</text>
    <circle cx="100" cy="930" r="15" fill="#a6d189"/>
    <text x="140" y="940" class="text">Bright Green</text>
    <text x="420" y="940" class="text">#a6d189</text>
    <text x="720" y="940" class="text">rgb(166, 209, 137)</text>
    <text x="1020" y="940" class="text">hsl(96deg, 44%, 68%)</text>
    <circle cx="100" cy="990" r="15" fill="#ef9f76"/>
    <text x="140" y="1000" class="text">Bright Yellow</text>
    <text x="420" y="1000" class="text">#ef9f76</text>
    <text x="720" y="1000" class="text">rgb(239, 159, 118)</text>
    <text x="1020" y="1000" class="text">hsl(20deg, 79%, 70%)</text>
    <circle cx="100" cy="1050" r="15" fill="#85c1dc"/>
    <text x="140" y="1060" class="text">Bright Blue</text>
    <text x="420" y="1060" class="text">#85c1dc</text>
    <text x="720" y="1060" class="text">rgb(133, 193, 220)</text>
    <text x="1020" y="1060" class="text">hsl(199deg, 55%, 69%)</text>
    <circle cx="100" cy="1110" r="15" fill="#babbf1"/>
    <text x="140" y="1120" class="text">Bright Magenta</text>
    <text x="420" y="1120" class="text">#babbf1</text>
    <text x="720" y="1120" class="text">rgb(186, 187, 241)</text>
    <text x="1020" y="1120" class="text">hsl(239deg, 66%, 84%)</text>
    <circle cx="100" cy="1170" r="15" fill="#99d1db"/>
    <text x="140" y="1180" class="text">Bright Cyan</text>
    <text x="420" y="1180" class="text">#99d1db</text>
    <text x="720" y="1180" class="text">rgb(153, 209, 219)</text>
    <text x="1020" y="1180" class="text">hsl(189deg, 48%, 73%)</text>
    <circle cx="100" cy="1230" r="15" fill="#c6d0f5"/>
    <text x="140" y="1240" class="text">Bright White</text>
    <text x="420" y="1240" class="text">#c6d0f5</text>
    <text x="720" y="1240" class="text">rgb(198, 208, 245)</text>
    <text x="1020" y="1240" class="text">hsl(227deg, 70%, 87%)</text>
    <circle cx="100" cy="1290" r="15" fill="#ef9f76"/>
    <text x="140" y="1300" class="text">Orange</text>
    <text x="420" y="1300" class="text">#ef9f76</text>
    <text x="720" y="1300" class="text">rgb(239, 159, 118)</text>
    <text x="1020" y="1300" class="text">hsl(20deg, 79%, 70%)</text>
    <circle cx="100" cy="1350" r="15" fill="#f4b8e4"/>
    <text x="140" y="1360" class="text">Pink</text>
    <text x="420" y="1360" class="text">#f4b8e4</text>
    <text x="720" y="1360" class="text">rgb(244, 184, 228)</text>
    <text x="1020" y="1360" class="text">hsl(316deg, 73%, 84%)</text>
    <circle cx="100" cy="1410" r="15" fill="#949cbb"/>
    <text x="140" y="1420" class="text">Comment</text>
    <text x="420" y="1420" class="text">#949cbb</text>
    <text x="720" y="1420" class="text">rgb(148, 156, 187)</text>
    <text x="1020" y="1420" class="text">hsl(228deg, 22%, 66%)</text>
    <circle cx="100" cy="1470" r="15" fill="#c6d0f5"/>
    <text x="140" y="1480" class="text">Cursor</text>
    <text x="420" y="1480" class="text">#c6d0f5</text>
    <text x="720" y="1480" class="text">rgb(198, 208, 245)</text>
    <text x="1020" y="1480" class="text">hsl(227deg, 70%, 87%)</text>
    <circle cx="100" cy="1530" r="15" fill="#414559"/>
    <text x="140" y="1540" class="text">Selection</text>
    <text x="420" y="1540" class="text">#414559</text>
    <text x="720" y="1540" class="text">rgb(65, 69, 89)</text>
    <text x="1020" y="1540" class="text">hsl(230deg, 16%, 30%)</text>
    <circle cx="100" cy="1590" r="15" fill="#ca9ee6"/>
    <text x="140" y="1600" class="text">Highlight</text>
    <text x="420" y="1600" class="text">#ca9ee6</text>
    <text x="720" y="1600" class="text">rgb(202, 158, 230)</text>
    <text x="1020" y="1600" class="text">hsl(277deg, 59%, 76%)</text>
</svg>