<?xml version="1.0" encoding="UTF-8"?>
<svg width="1400" height="1800" xmlns="http://www.w3.org/2000/svg">
    <style>
        .title { font-size: 48px; font-family: Arial; fill: rgb(198, 208, 245); }
        .header { font-size: 32px; font-family: Arial; fill: rgb(165, 173, 206); }
        .text { font-size: 24px; font-family: Arial; fill: rgb(198, 208, 245); }
    </style>
    <rect width="100%" height="100%" fill="rgb(35, 38, 52)"/>
    <text x="120" y="80" class="title">Example Palette</text>
    <text x="120" y="160" class="header">Color</text>
    <text x="420" y="160" class="header">Hex</text>
    <text x="720" y="160" class="header">RGB</text>
    <text x="1020" y="160" class="header">HSL</text>
    <circle cx="100" cy="210" r="15" fill="#f2d5cf"/>
    <text x="140" y="220" class="text">Rosewater</text>
    <text x="420" y="220" class="text">#f2d5cf</text>
    <text x="720" y="220" class="text">rgb(242, 213, 207)</text>
    <text x="1020" y="220" class="text">hsl(10deg, 57%, 88%)</text>
    <circle cx="100" cy="270" r="15" fill="#eebebe"/>
    <text x="140" y="280" class="text">Flamingo</text>
    <text x="420" y="280" class="text">#eebebe</text>
    <text x="720" y="280" class="text">rgb(238, 190, 190)</text>
    <text x="1020" y="280" class="text">hsl(0deg, 59%, 84%)</text>
    <circle cx="100" cy="330" r="15" fill="#b5bfe2"/>
    <text x="140" y="340" class="text">Subtext 1</text>
    <text x="420" y="340" class="text">#b5bfe2</text>
    <text x="720" y="340" class="text">rgb(181, 191, 226)</text>
    <text x="1020" y="340" class="text">hsl(227deg, 44%, 80%)</text>
    <circle cx="100" cy="390" r="15" fill="#a5adce"/>
    <text x="140" y="400" class="text">Subtext 0</text>
    <text x="420" y="400" class="text">#a5adce</text>
    <text x="720" y="400" class="text">rgb(165, 173, 206)</text>
    <text x="1020" y="400" class="text">hsl(228deg, 29%, 73%)</text>
    <circle cx="100" cy="450" r="15" fill="#949cbb"/>
    <text x="140" y="460" class="text">Overlay 2</text>
    <text x="420" y="460" class="text">#949cbb</text>
    <text x="720" y="460" class="text">rgb(148, 156, 187)</text>
    <text x="1020" y="460" class="text">hsl(228deg, 22%, 66%)</text>
    <circle cx="100" cy="510" r="15" fill="#838ba7"/>
    <text x="140" y="520" class="text">Overlay 1</text>
    <text x="420" y="520" class="text">#838ba7</text>
    <text x="720" y="520" class="text">rgb(131, 139, 167)</text>
    <text x="1020" y="520" class="text">hsl(227deg, 17%, 58%)</text>
    <circle cx="100" cy="570" r="15" fill="#737994"/>
    <text x="140" y="580" class="text">Overlay 0</text>
    <text x="420" y="580" class="text">#737994</text>
    <text x="720" y="580" class="text">rgb(115, 121, 148)</text>
    <text x="1020" y="580" class="text">hsl(229deg, 13%, 52%)</text>
    <circle cx="100" cy="630" r="15" fill="#626880"/>
    <text x="140" y="640" class="text">Surface 2</text>
    <text x="420" y="640" class="text">#626880</text>
    <text x="720" y="640" class="text">rgb(98, 104, 128)</text>
    <text x="1020" y="640" class="text">hsl(228deg, 13%, 44%)</text>
    <circle cx="100" cy="690" r="15" fill="#51576d"/>
    <text x="140" y="700" class="text">Surface 1</text>
    <text x="420" y="700" class="text">#51576d</text>
    <text x="720" y="700" class="text">rgb(81, 87, 109)</text>
    <text x="1020" y="700" class="text">hsl(227deg, 15%, 37%)</text>
    <circle cx="100" cy="750" r="15" fill="#414559"/>
    <text x="140" y="760" class="text">Surface 0</text>
    <text x="420" y="760" class="text">#414559</text>
    <text x="720" y="760" class="text">rgb(65, 69, 89)</text>
    <text x="1020" y="760" class="text">hsl(230deg, 16%, 30%)</text>
    <circle cx="100" cy="810" r="15" fill="#303446"/>
    <text x="140" y="820" class="text">Base</text>
    <text x="420" y="820" class="text">#303446</text>
    <text x="720" y="820" class="text">rgb(48, 52, 70)</text>
    <text x="1020" y="820" class="text">hsl(229deg, 19%, 23%)</text>
    <circle cx="100" cy="870" r="15" fill="#292c3c"/>
    <text x="140" y="880" class="text">Mantle</text>
    <text x="420" y="880" class="text">#292c3c</text>
    <text x="720" y="880" class="text">rgb(41, 44, 60)</text>
    <text x="1020" y="880" class="text">hsl(231deg, 19%, 20%)</text>
    <circle cx="100" cy="930" r="15" fill="#232634"/>
    <text x="140" y="940" class="text">Crust</text>
    <text x="420" y="940" class="text">#232634</text>
    <text x="720" y="940" class="text">rgb(35, 38, 52)</text>
    <text x="1020" y="940" class="text">hsl(229deg, 20%, 17%)</text>
</svg>